<?xml version="1.0" encoding="iso-8859-1"?>
<!-- Generator: Adobe Illustrator 19.0.0, SVG Export Plug-In . SVG Version: 6.00 Build 0)  -->
<svg xmlns="http://www.w3.org/2000/svg" xmlns:xlink="http://www.w3.org/1999/xlink" version="1.1" id="Capa_1" x="0px" y="0px" viewBox="0 0 480.001 480.001" style="enable-background:new 0 0 480.001 480.001;" xml:space="preserve" width="128px" height="128px">
<g>
	<g>
		<path d="M239.999,32c-74.992,0-136,61.008-136,136s61.008,136,136,136s136-61.008,136-136S314.991,32,239.999,32z M239.999,288    c-66.168,0-120-53.832-120-120c0-66.168,53.832-120,120-120c66.168,0,120,53.832,120,120C359.999,234.168,306.167,288,239.999,288    z" fill="#FFFFFF"/>
	</g>
</g>
<g>
	<g>
		<path d="M317.319,146.016l-13.32-11.832V88c0-4.416-3.584-8-8-8h-32c-4.416,0-8,3.584-8,8v3.52l-10.68-9.504    c-3.032-2.696-7.6-2.696-10.632,0l-72,64c-1.712,1.52-2.688,3.696-2.688,5.984v88c0,4.416,3.584,8,8,8h56h32h56    c4.416,0,8-3.584,8-8v-88C319.999,149.712,319.023,147.536,317.319,146.016z M247.999,232h-16v-40h16V232z M303.999,232h-40v-48    c0-4.416-3.584-8-8-8h-32c-4.416,0-8,3.584-8,8v48h-40v-76.408l64-56.888l18.68,16.608c2.36,2.096,5.72,2.608,8.592,1.32    c2.88-1.296,4.728-4.152,4.728-7.296V96h16v41.776c0,2.288,0.976,4.464,2.68,5.984l13.32,11.832V232z" fill="#FFFFFF"/>
	</g>
</g>
<g>
	<g>
		<path d="M478.591,467.472l-88-128c-1.488-2.176-3.96-3.472-6.592-3.472h-50.984c38.48-45.616,74.984-103.512,74.984-159.168    C407.999,69.408,342.055,0,239.999,0s-168,69.408-168,176.832c0,55.656,36.504,113.552,74.984,159.168H95.999    c-2.632,0-5.104,1.296-6.592,3.472l-88,128c-1.68,2.448-1.872,5.624-0.488,8.256C2.303,478.352,5.023,480,7.999,480h464    c2.976,0,5.696-1.648,7.08-4.28C480.463,473.096,480.279,469.912,478.591,467.472z M87.999,176.832    c0-118.584,78.52-160.832,152-160.832c73.48,0,152,42.248,152,160.832c0,93.04-116.432,198.576-148.728,226.056    c-0.696,0.592-1.384,1.176-2,1.688c-0.424,0.352-0.896,0.752-1.272,1.072c-0.312-0.264-0.704-0.592-1.048-0.88    c-0.744-0.624-1.584-1.336-2.448-2.072c-0.824-0.696-1.656-1.416-2.584-2.208c-0.256-0.216-0.56-0.488-0.824-0.712    c-2.12-1.84-4.464-3.88-7.04-6.176c-0.232-0.208-0.48-0.432-0.72-0.648C183.231,355.36,87.999,261.032,87.999,176.832z     M160.967,352c34.344,37.872,66.888,64.52,73.16,69.544c0.456,0.368,0.8,0.64,0.912,0.728c2.904,2.304,7.024,2.304,9.928,0    c0.112-0.088,0.448-0.36,0.912-0.728c6.272-5.024,38.816-31.672,73.152-69.544h60.768l29.808,43.352l-206.256,51.56L135.543,352    H160.967z M100.207,352h15.672l24.6,34.448l-76.024,17.544L100.207,352z M135.007,464h-111.8l27.832-40.488l99.512-22.968    l36.104,50.544L135.007,464z M200.991,464l155.664-38.92l27.8,38.92H200.991z M404.119,464l-30.776-43.088l45.936-11.48    L456.791,464H404.119z" fill="#FFFFFF"/>
	</g>
</g>
<g>
</g>
<g>
</g>
<g>
</g>
<g>
</g>
<g>
</g>
<g>
</g>
<g>
</g>
<g>
</g>
<g>
</g>
<g>
</g>
<g>
</g>
<g>
</g>
<g>
</g>
<g>
</g>
<g>
</g>
</svg>
