<?xml version="1.0" encoding="iso-8859-1"?>
<!-- Generator: Adobe Illustrator 19.0.0, SVG Export Plug-In . SVG Version: 6.00 Build 0)  -->
<svg xmlns="http://www.w3.org/2000/svg" xmlns:xlink="http://www.w3.org/1999/xlink" version="1.1" id="Capa_1" x="0px" y="0px" viewBox="0 0 480 480" style="enable-background:new 0 0 480 480;" xml:space="preserve" width="128px" height="128px">
<g>
	<g>
		<path d="M365.656,210.344L336,180.688V96c0-4.416-3.584-8-8-8h-48c-4.416,0-8,3.584-8,8v20.688l-26.344-26.344    c-3.128-3.128-8.184-3.128-11.312,0l-120,120C112.84,211.84,112,213.88,112,216v168c0,4.416,3.584,8,8,8h88h64h88    c4.416,0,8-3.584,8-8V216C368,213.88,367.16,211.84,365.656,210.344z M264,376h-48v-88h48V376z M352,376h-72v-96    c0-4.416-3.584-8-8-8h-64c-4.416,0-8,3.584-8,8v96h-72V219.312l112-112l34.344,34.344c2.288,2.28,5.72,2.968,8.72,1.736    c2.984-1.24,4.936-4.16,4.936-7.392v-32h32v80c0,2.12,0.84,4.16,2.344,5.656L352,219.312V376z" fill="#FFFFFF"/>
	</g>
</g>
<g>
	<g>
		<path d="M456.688,296.912c-1.376,5.264-2.984,10.544-4.752,15.712l15.136,5.192c1.904-5.536,3.616-11.2,5.096-16.84    L456.688,296.912z" fill="#FFFFFF"/>
	</g>
</g>
<g>
	<g>
		<path d="M467.112,162.288l-15.136,5.184c1.768,5.16,3.36,10.448,4.744,15.712l15.48-4.04    C470.72,173.488,469.016,167.816,467.112,162.288z" fill="#FFFFFF"/>
	</g>
</g>
<g>
	<g>
		<path d="M453.288,129.944l-14.208,7.352c2.512,4.864,4.872,9.856,7,14.848l14.712-6.288    C458.504,140.512,455.984,135.152,453.288,129.944z" fill="#FFFFFF"/>
	</g>
</g>
<g>
	<g>
		<path d="M446.048,327.944c-2.144,5.016-4.496,10.008-7,14.84l14.2,7.36c2.688-5.176,5.216-10.528,7.512-15.912L446.048,327.944z" fill="#FFFFFF"/>
	</g>
</g>
<g>
	<g>
		<path d="M462.656,264.656c-0.592,5.408-1.392,10.864-2.384,16.24l15.736,2.904c1.056-5.752,1.92-11.608,2.552-17.4    L462.656,264.656z" fill="#FFFFFF"/>
	</g>
</g>
<g>
	<g>
		<path d="M476.024,196.32l-15.736,2.888c0.984,5.36,1.784,10.832,2.376,16.256l15.904-1.744    C477.936,207.912,477.08,202.056,476.024,196.32z" fill="#FFFFFF"/>
	</g>
</g>
<g>
	<g>
		<path d="M479.84,231.272l-15.992,0.576c0.104,2.704,0.152,5.424,0.152,8.144c0,2.784-0.056,5.544-0.152,8.296l15.992,0.568    c0.104-2.936,0.16-5.88,0.16-8.856C480,237.08,479.952,234.168,479.84,231.272z" fill="#FFFFFF"/>
	</g>
</g>
<g>
	<g>
		<path d="M4,196.2c-1.064,5.752-1.928,11.608-2.56,17.4l15.904,1.744c0.592-5.408,1.392-10.864,2.384-16.24L4,196.2z" fill="#FFFFFF"/>
	</g>
</g>
<g>
	<g>
		<path d="M12.92,162.184c-1.896,5.536-3.616,11.2-5.096,16.84l15.48,4.064c1.376-5.256,2.984-10.544,4.752-15.712L12.92,162.184z" fill="#FFFFFF"/>
	</g>
</g>
<g>
	<g>
		<path d="M33.912,327.856L19.2,334.144c2.288,5.344,4.808,10.704,7.504,15.912l14.216-7.352    C38.4,337.84,36.048,332.848,33.912,327.856z" fill="#FFFFFF"/>
	</g>
</g>
<g>
	<g>
		<path d="M16.152,231.712L0.16,231.144C0.056,234.08,0,237.024,0,240c0,2.92,0.048,5.832,0.16,8.728l15.992-0.576    c-0.104-2.704-0.152-5.424-0.152-8.144C16,237.224,16.056,234.464,16.152,231.712z" fill="#FFFFFF"/>
	</g>
</g>
<g>
	<g>
		<path d="M26.752,129.856c-2.688,5.176-5.216,10.528-7.512,15.912l14.712,6.288c2.144-5.016,4.496-10.008,7-14.84L26.752,129.856z" fill="#FFFFFF"/>
	</g>
</g>
<g>
	<g>
		<path d="M17.336,264.536L1.432,266.28c0.632,5.808,1.488,11.664,2.544,17.4l15.736-2.888    C18.728,275.432,17.928,269.96,17.336,264.536z" fill="#FFFFFF"/>
	</g>
</g>
<g>
	<g>
		<path d="M23.272,296.816l-15.48,4.048c1.48,5.656,3.184,11.328,5.088,16.856l15.136-5.192    C26.248,307.368,24.656,302.08,23.272,296.816z" fill="#FFFFFF"/>
	</g>
</g>
<g>
	<g>
		<path d="M384,16v32.144C342.576,17.024,292.048,0,240,0C182.704,0,127.208,20.576,83.72,57.936l10.432,12.136    C134.736,35.2,186.528,16,240,16c45.712,0,90.144,14.144,127.456,40H344v16h48c4.416,0,8-3.584,8-8V16H384z" fill="#FFFFFF"/>
	</g>
</g>
<g>
	<g>
		<path d="M385.848,409.928C345.264,444.8,293.472,464,240,464c-45.712,0-90.144-14.144-127.456-40H136v-16H88c-4.416,0-8,3.584-8,8    v48h16v-32.144C137.424,462.976,187.952,480,240,480c57.296,0,112.792-20.576,156.28-57.936L385.848,409.928z" fill="#FFFFFF"/>
	</g>
</g>
<g>
</g>
<g>
</g>
<g>
</g>
<g>
</g>
<g>
</g>
<g>
</g>
<g>
</g>
<g>
</g>
<g>
</g>
<g>
</g>
<g>
</g>
<g>
</g>
<g>
</g>
<g>
</g>
<g>
</g>
</svg>
