<?xml version="1.0" encoding="iso-8859-1"?>
<!-- Generator: Adobe Illustrator 19.0.0, SVG Export Plug-In . SVG Version: 6.00 Build 0)  -->
<svg xmlns="http://www.w3.org/2000/svg" xmlns:xlink="http://www.w3.org/1999/xlink" version="1.1" id="Capa_1" x="0px" y="0px" viewBox="0 0 480 480" style="enable-background:new 0 0 480 480;" xml:space="preserve" width="128px" height="128px">
<g>
	<g>
		<path d="M440,0H40C17.944,0,0,17.944,0,40v304c0,22.056,17.944,40,40,40h149.752l-12,48H168c-22.056,0-40,17.944-40,40    c0,4.416,3.584,8,8,8h208c4.416,0,8-3.584,8-8c0-22.056-17.944-40-40-40h-9.752l-12-48H440c22.056,0,40-17.944,40-40V40    C480,17.944,462.056,0,440,0z M296,448h16c10.432,0,19.328,6.688,22.632,16H145.368c3.304-9.312,12.2-16,22.632-16h16H296z     M194.248,432l12-48h67.504l12,48H194.248z M464,344c0,13.232-10.768,24-24,24H280h-80H40c-13.232,0-24-10.768-24-24v-24h448V344z     M464,304H16V80h448V304z M464,64H16V40c0-13.232,10.768-24,24-24h400c13.232,0,24,10.768,24,24V64z" fill="#FFFFFF"/>
	</g>
</g>
<g>
	<g>
		<rect x="104" y="32" width="16" height="16" fill="#FFFFFF"/>
	</g>
</g>
<g>
	<g>
		<rect x="72" y="32" width="16" height="16" fill="#FFFFFF"/>
	</g>
</g>
<g>
	<g>
		<rect x="40" y="32" width="16" height="16" fill="#FFFFFF"/>
	</g>
</g>
<g>
	<g>
		<rect x="232" y="336" width="16" height="16" fill="#FFFFFF"/>
	</g>
</g>
<g>
	<g>
		<path d="M311.936,183.696c-0.032-0.936-0.192-1.864-0.552-2.744c-0.048-0.12-0.128-0.208-0.184-0.32    c-0.248-0.536-0.512-1.064-0.888-1.544l-56-72c-0.04-0.056-0.112-0.072-0.16-0.12c-1.496-1.832-3.72-2.968-6.152-2.968H104    c-2.472,0-4.8,1.144-6.32,3.088l-56,72c-0.376,0.48-0.632,1.008-0.888,1.544c-0.056,0.112-0.136,0.2-0.184,0.32    c-0.36,0.88-0.52,1.808-0.552,2.744c0,0.112-0.056,0.2-0.056,0.304v96c0,4.416,3.584,8,8,8h144h40h32h40c4.416,0,8-3.584,8-8v-96    C312,183.896,311.944,183.808,311.936,183.696z M287.648,176H208.36L248,125.032L287.648,176z M184,272H56v-80h128V272z     M188.08,176H64.352l43.56-56H231.64l-31.112,40L188.08,176z M256,272h-16v-32h16V272z M296,272h-24v-40c0-4.416-3.584-8-8-8h-32    c-4.416,0-8,3.584-8,8v40h-24v-80h96V272z" fill="#FFFFFF"/>
	</g>
</g>
<g>
	<g>
		<path d="M398.808,219.496l21.664-7.216c3.2-1.064,5.392-4.032,5.464-7.408c0.08-3.376-1.976-6.44-5.128-7.648l-73.536-28.288    c-2.952-1.136-6.288-0.424-8.528,1.808c-2.232,2.232-2.944,5.576-1.808,8.528l28.288,73.536c1.184,3.096,4.16,5.128,7.464,5.128    c0.056,0,0.12,0,0.184,0c3.376-0.072,6.336-2.264,7.408-5.464l7.216-21.664l30.448,30.448l11.312-11.312L398.808,219.496z     M381.464,208.416c-2.384,0.792-4.256,2.664-5.056,5.056l-4.264,12.792l-13.816-35.928l35.928,13.816L381.464,208.416z" fill="#FFFFFF"/>
	</g>
</g>
<g>
</g>
<g>
</g>
<g>
</g>
<g>
</g>
<g>
</g>
<g>
</g>
<g>
</g>
<g>
</g>
<g>
</g>
<g>
</g>
<g>
</g>
<g>
</g>
<g>
</g>
<g>
</g>
<g>
</g>
</svg>
