<?xml version="1.0" encoding="iso-8859-1"?>
<!-- Generator: Adobe Illustrator 19.0.0, SVG Export Plug-In . SVG Version: 6.00 Build 0)  -->
<svg xmlns="http://www.w3.org/2000/svg" xmlns:xlink="http://www.w3.org/1999/xlink" version="1.1" id="Capa_1" x="0px" y="0px" viewBox="0 0 480 480" style="enable-background:new 0 0 480 480;" xml:space="preserve" width="128px" height="128px">
<g>
	<g>
		<path d="M400,0H112C92.432,0,76.168,14.144,72.736,32.728C54.144,36.168,40,52.432,40,72v368c0,22.056,17.944,40,40,40h288    c19.568,0,35.832-14.144,39.264-32.736C425.856,443.832,440,427.568,440,408V40C440,17.944,422.056,0,400,0z M392,440    c0,13.232-10.768,24-24,24H80c-13.232,0-24-10.768-24-24V72c0-13.232,10.768-24,24-24h256v48c0,4.416,3.576,8,8,8h48V440z M352,88    V59.312L380.688,88H352z M424,408c0,10.416-6.712,19.216-16,22.528V96c0-2.216-0.896-4.216-2.352-5.664l-55.984-55.992    C348.216,32.896,346.216,32,344,32H89.472c3.312-9.296,12.112-16,22.528-16h288c13.232,0,24,10.76,24,24V408z" fill="#FFFFFF"/>
	</g>
</g>
<g>
	<g>
		<path d="M349.656,202.344L320,172.688V88c0-4.416-3.576-8-8-8h-48c-4.424,0-8,3.584-8,8v20.688l-26.344-26.344    c-3.128-3.128-8.184-3.128-11.312,0l-120,120C96.84,203.84,96,205.88,96,208v136c0,4.416,3.576,8,8,8h88h64h88    c4.424,0,8-3.584,8-8V208C352,205.88,351.16,203.84,349.656,202.344z M248,336h-48v-80h48V336z M336,336h-72v-88    c0-4.416-3.576-8-8-8h-64c-4.424,0-8,3.584-8,8v88h-72V211.312l112-112l34.344,34.344c2.288,2.296,5.736,2.976,8.72,1.736    c2.992-1.24,4.936-4.16,4.936-7.392V96h32v80c0,2.12,0.84,4.16,2.344,5.656L336,211.312V336z" fill="#FFFFFF"/>
	</g>
</g>
<g>
	<g>
		<path d="M173.656,378.344c-3.128-3.128-8.184-3.128-11.312,0L152,388.688l-10.344-10.344c-3.128-3.128-8.184-3.128-11.312,0    L120,388.688l-10.344-10.344l-11.312,11.312l16,16c3.128,3.128,8.184,3.128,11.312,0L136,395.312l10.344,10.344    c1.56,1.56,3.608,2.344,5.656,2.344c2.048,0,4.096-0.784,5.656-2.344L168,395.312l10.344,10.344l11.312-11.312L173.656,378.344z" fill="#FFFFFF"/>
	</g>
</g>
<g>
	<g>
		<rect x="104" y="424" width="88" height="16" fill="#FFFFFF"/>
	</g>
</g>
<g>
	<g>
		<path d="M325.656,378.344c-3.128-3.128-8.184-3.128-11.312,0L304,388.688l-10.344-10.344c-3.128-3.128-8.184-3.128-11.312,0    L272,388.688l-10.344-10.344l-11.312,11.312l16,16c3.128,3.128,8.184,3.128,11.312,0L288,395.312l10.344,10.344    c1.56,1.56,3.608,2.344,5.656,2.344c2.048,0,4.096-0.784,5.656-2.344L320,395.312l10.344,10.344l11.312-11.312L325.656,378.344z" fill="#FFFFFF"/>
	</g>
</g>
<g>
	<g>
		<rect x="256" y="424" width="88" height="16" fill="#FFFFFF"/>
	</g>
</g>
<g>
</g>
<g>
</g>
<g>
</g>
<g>
</g>
<g>
</g>
<g>
</g>
<g>
</g>
<g>
</g>
<g>
</g>
<g>
</g>
<g>
</g>
<g>
</g>
<g>
</g>
<g>
</g>
<g>
</g>
</svg>
