<?xml version="1.0" encoding="iso-8859-1"?>
<!-- Generator: Adobe Illustrator 19.0.0, SVG Export Plug-In . SVG Version: 6.00 Build 0)  -->
<svg xmlns="http://www.w3.org/2000/svg" xmlns:xlink="http://www.w3.org/1999/xlink" version="1.1" id="Capa_1" x="0px" y="0px" viewBox="0 0 480 480" style="enable-background:new 0 0 480 480;" xml:space="preserve" width="128px" height="128px">
<g>
	<g>
		<path d="M479.904,63.504c-0.048-0.728-0.192-1.424-0.432-2.112c-0.088-0.256-0.152-0.512-0.272-0.76    c-0.384-0.824-0.864-1.6-1.528-2.264c-0.008-0.008-0.016-0.024-0.024-0.032L421.664,2.352c-0.008-0.008-0.024-0.016-0.04-0.032    c-0.672-0.664-1.456-1.152-2.28-1.536c-0.224-0.104-0.456-0.16-0.688-0.248c-0.72-0.256-1.456-0.408-2.216-0.448    C416.28,0.08,416.152,0,416,0H40C17.944,0,0,17.944,0,40v400c0,22.056,17.944,40,40,40h400c22.056,0,40-17.944,40-40V64    C480,63.824,479.912,63.68,479.904,63.504z M424,27.312L452.688,56H424V27.312z M464,440c0,13.232-10.768,24-24,24H40    c-13.232,0-24-10.768-24-24V40c0-13.232,10.768-24,24-24h368v48c0,4.424,3.584,8,8,8h48V440z" fill="#FFFFFF"/>
	</g>
</g>
<g>
	<g>
		<path d="M384,56h-40h-40h-40h-40H48c-4.416,0-8,3.576-8,8v34.2v35.592V168v104v152c0,4.424,3.584,8,8,8h144c4.416,0,8-3.576,8-8    v-48v-64v-32h184c4.416,0,8-3.576,8-8v-40V64C392,59.576,388.416,56,384,56z M312,72h24v16h-24V72z M272,72h24v16h-24V72z     M272,104h32h32v64h-64V104z M56,104.832C59.856,104.28,63.872,104,68,104c23.384,0,36,8.512,36,12c0,3.488-12.616,12-36,12    c-4.128,0-8.144-0.28-12-0.832V104.832z M56,143.256C59.912,143.72,63.904,144,68,144c25.84,0,52-9.616,52-28    c0-21.32-34.984-30.584-64-27.224V72h160v24h-56c-4.416,0-8,3.576-8,8c0,22.608,10.496,42.792,26.848,56H56V143.256z M216,112    v47.432c-24.488-3.512-43.912-22.936-47.432-47.432H216z M184,367.432c-24.488-3.512-43.912-22.936-47.432-47.432H184V367.432z     M184,304h-56c-4.416,0-8,3.576-8,8c0,37,28.056,67.536,64,71.528V416H56V280h128V304z M376,264H192H56v-88h160v56    c0,4.424,3.584,8,8,8h152V264z M376,224H232v-56v-64V72h24v24v80c0,4.424,3.584,8,8,8h80c4.416,0,8-3.576,8-8V96V72h24V224z" fill="#FFFFFF"/>
	</g>
</g>
<g>
	<g>
		<rect x="304" y="344" width="96" height="16" fill="#FFFFFF"/>
	</g>
</g>
<g>
	<g>
		<rect x="416" y="344" width="24" height="16" fill="#FFFFFF"/>
	</g>
</g>
<g>
	<g>
		<rect x="304" y="376" width="96" height="16" fill="#FFFFFF"/>
	</g>
</g>
<g>
	<g>
		<rect x="416" y="376" width="24" height="16" fill="#FFFFFF"/>
	</g>
</g>
<g>
	<g>
		<rect x="304" y="408" width="96" height="16" fill="#FFFFFF"/>
	</g>
</g>
<g>
	<g>
		<rect x="416" y="408" width="24" height="16" fill="#FFFFFF"/>
	</g>
</g>
<g>
	<g>
		<rect x="328" y="312" width="88" height="16" fill="#FFFFFF"/>
	</g>
</g>
<g>
</g>
<g>
</g>
<g>
</g>
<g>
</g>
<g>
</g>
<g>
</g>
<g>
</g>
<g>
</g>
<g>
</g>
<g>
</g>
<g>
</g>
<g>
</g>
<g>
</g>
<g>
</g>
<g>
</g>
</svg>
