<?xml version="1.0" encoding="iso-8859-1"?>
<!-- Generator: Adobe Illustrator 19.0.0, SVG Export Plug-In . SVG Version: 6.00 Build 0)  -->
<svg xmlns="http://www.w3.org/2000/svg" xmlns:xlink="http://www.w3.org/1999/xlink" version="1.1" id="Capa_1" x="0px" y="0px" viewBox="0 0 512 512" style="enable-background:new 0 0 512 512;" xml:space="preserve" width="512px" height="512px">
<g>
	<g>
		<path d="M392,0H24c-4.424,0-8,3.576-8,8v496c0,4.424,3.576,8,8,8h368c4.424,0,8-3.576,8-8V8C400,3.576,396.424,0,392,0z M384,496    H32V16h352V496z" fill="#FFFFFF"/>
	</g>
</g>
<g>
	<g>
		<path d="M368,24c-4.424,0-8,3.576-8,8v440H56V32c0-4.424-3.576-8-8-8s-8,3.576-8,8v448c0,4.424,3.576,8,8,8h320    c4.424,0,8-3.576,8-8V32C376,27.576,372.424,24,368,24z" fill="#FFFFFF"/>
	</g>
</g>
<g>
	<g>
		<path d="M159.152,36.416l-16-32c-1.984-3.952-6.784-5.536-10.736-3.576c-3.952,1.976-5.552,6.784-3.576,10.736l16,32    c1.408,2.808,4.232,4.424,7.168,4.424c1.2,0,2.424-0.272,3.568-0.848C159.528,45.176,161.128,40.368,159.152,36.416z" fill="#FFFFFF"/>
	</g>
</g>
<g>
	<g>
		<path d="M283.584,0.848c-3.944-1.96-8.752-0.376-10.736,3.576l-16,32c-1.976,3.952-0.376,8.76,3.576,10.736    c1.144,0.568,2.368,0.84,3.568,0.84c2.936,0,5.76-1.616,7.168-4.416l16-32C289.136,7.632,287.536,2.824,283.584,0.848z" fill="#FFFFFF"/>
	</g>
</g>
<g>
	<g>
		<path d="M264,32H152c-4.424,0-8,3.576-8,8s3.576,8,8,8h112c4.424,0,8-3.576,8-8S268.424,32,264,32z" fill="#FFFFFF"/>
	</g>
</g>
<g>
	<g>
		<path d="M368,24H268c-4.424,0-8,3.576-8,8s3.576,8,8,8h100c4.424,0,8-3.576,8-8S372.424,24,368,24z" fill="#FFFFFF"/>
	</g>
</g>
<g>
	<g>
		<path d="M148,24H48c-4.424,0-8,3.576-8,8s3.576,8,8,8h100c4.424,0,8-3.576,8-8S152.424,24,148,24z" fill="#FFFFFF"/>
	</g>
</g>
<g>
	<g>
		<path d="M133.776,138.48l-7.608-8c-3.048-3.184-8.112-3.312-11.312-0.28c-3.2,3.048-3.328,8.112-0.28,11.312l7.608,8    c1.576,1.656,3.68,2.488,5.8,2.488c1.984,0,3.968-0.736,5.512-2.208C136.696,146.744,136.824,141.68,133.776,138.48z" fill="#FFFFFF"/>
	</g>
</g>
<g>
	<g>
		<path d="M149.656,122.328c-3.128-3.128-8.184-3.128-11.312,0l-16.016,16.016c-3.128,3.128-3.128,8.184,0,11.312    c1.56,1.56,3.608,2.344,5.656,2.344s4.096-0.784,5.656-2.344l16.016-16.016C152.784,130.512,152.784,125.456,149.656,122.328z" fill="#FFFFFF"/>
	</g>
</g>
<g>
	<g>
		<path d="M132,80c-28.672,0-52,23.328-52,52s23.328,52,52,52s52-23.328,52-52S160.672,80,132,80z M132,168    c-19.848,0-36-16.152-36-36c0-19.848,16.152-36,36-36s36,16.152,36,36C168,151.848,151.848,168,132,168z" fill="#FFFFFF"/>
	</g>
</g>
<g>
	<g>
		<path d="M328,104H216c-4.424,0-8,3.576-8,8s3.576,8,8,8h112c4.424,0,8-3.576,8-8S332.424,104,328,104z" fill="#FFFFFF"/>
	</g>
</g>
<g>
	<g>
		<path d="M272,136h-56c-4.424,0-8,3.576-8,8s3.576,8,8,8h56c4.424,0,8-3.576,8-8S276.424,136,272,136z" fill="#FFFFFF"/>
	</g>
</g>
<g>
	<g>
		<path d="M133.776,394.48l-7.608-8c-3.048-3.184-8.112-3.312-11.312-0.28c-3.2,3.048-3.328,8.112-0.28,11.312l7.608,8    c1.576,1.656,3.68,2.488,5.8,2.488c1.984,0,3.968-0.736,5.512-2.208C136.696,402.744,136.824,397.68,133.776,394.48z" fill="#FFFFFF"/>
	</g>
</g>
<g>
	<g>
		<path d="M149.656,378.328c-3.128-3.128-8.184-3.128-11.312,0l-16.016,16.016c-3.128,3.128-3.128,8.184,0,11.312    c1.56,1.56,3.608,2.344,5.656,2.344s4.096-0.784,5.656-2.344l16.016-16.016C152.784,386.512,152.784,381.456,149.656,378.328z" fill="#FFFFFF"/>
	</g>
</g>
<g>
	<g>
		<path d="M132,336c-28.672,0-52,23.328-52,52s23.328,52,52,52s52-23.328,52-52S160.672,336,132,336z M132,424    c-19.848,0-36-16.152-36-36c0-19.848,16.152-36,36-36s36,16.152,36,36C168,407.848,151.848,424,132,424z" fill="#FFFFFF"/>
	</g>
</g>
<g>
	<g>
		<path d="M328,360H216c-4.424,0-8,3.576-8,8s3.576,8,8,8h112c4.424,0,8-3.576,8-8S332.424,360,328,360z" fill="#FFFFFF"/>
	</g>
</g>
<g>
	<g>
		<path d="M272,392h-56c-4.424,0-8,3.576-8,8s3.576,8,8,8h56c4.424,0,8-3.576,8-8S276.424,392,272,392z" fill="#FFFFFF"/>
	</g>
</g>
<g>
	<g>
		<path d="M149.656,242.344c-3.128-3.128-8.184-3.128-11.312,0l-24.016,24c-3.128,3.12-3.128,8.184,0,11.312    c1.56,1.56,3.608,2.344,5.656,2.344s4.096-0.784,5.656-2.344l24.016-24C152.784,250.536,152.784,245.472,149.656,242.344z" fill="#FFFFFF"/>
	</g>
</g>
<g>
	<g>
		<path d="M149.656,266.344l-24.016-24c-3.128-3.128-8.184-3.128-11.312,0s-3.128,8.192,0,11.312l24.016,24    c1.56,1.56,3.608,2.344,5.656,2.344c2.048,0,4.096-0.784,5.656-2.344C152.784,274.528,152.784,269.464,149.656,266.344z" fill="#FFFFFF"/>
	</g>
</g>
<g>
	<g>
		<path d="M132,208c-28.672,0-52,23.328-52,52s23.328,52,52,52s52-23.328,52-52S160.672,208,132,208z M132,296    c-19.848,0-36-16.152-36-36c0-19.848,16.152-36,36-36s36,16.152,36,36C168,279.848,151.848,296,132,296z" fill="#FFFFFF"/>
	</g>
</g>
<g>
	<g>
		<path d="M328,232H216c-4.424,0-8,3.576-8,8s3.576,8,8,8h112c4.424,0,8-3.576,8-8S332.424,232,328,232z" fill="#FFFFFF"/>
	</g>
</g>
<g>
	<g>
		<path d="M272,264h-56c-4.424,0-8,3.576-8,8s3.576,8,8,8h56c4.424,0,8-3.576,8-8S276.424,264,272,264z" fill="#FFFFFF"/>
	</g>
</g>
<g>
	<g>
		<path d="M448,104c-13.232,0-24,10.768-24,24c0,4.424,3.576,8,8,8s8-3.576,8-8c0-4.416,3.584-8,8-8c4.416,0,8,3.584,8,8    c0,4.424,3.576,8,8,8s8-3.576,8-8C472,114.768,461.232,104,448,104z" fill="#FFFFFF"/>
	</g>
</g>
<g>
	<g>
		<path d="M432,120c-4.424,0-8,3.576-8,8v272c0,4.424,3.576,8,8,8s8-3.576,8-8V128C440,123.576,436.424,120,432,120z" fill="#FFFFFF"/>
	</g>
</g>
<g>
	<g>
		<path d="M464,120c-4.424,0-8,3.576-8,8v272c0,4.424,3.576,8,8,8s8-3.576,8-8V128C472,123.576,468.424,120,464,120z" fill="#FFFFFF"/>
	</g>
</g>
<g>
	<g>
		<path d="M454.656,419.56l-16-24c-2.456-3.68-7.408-4.672-11.096-2.216c-3.68,2.456-4.672,7.416-2.216,11.096l16,24    c1.536,2.312,4.08,3.56,6.664,3.56c1.52,0,3.064-0.44,4.432-1.344C456.12,428.2,457.112,423.24,454.656,419.56z" fill="#FFFFFF"/>
	</g>
</g>
<g>
	<g>
		<path d="M468.44,393.344c-3.688-2.456-8.648-1.464-11.096,2.216l-16,24c-2.456,3.68-1.464,8.64,2.216,11.096    c1.368,0.904,2.912,1.344,4.432,1.344c2.584,0,5.128-1.248,6.664-3.56l16-24C473.112,400.76,472.12,395.8,468.44,393.344z" fill="#FFFFFF"/>
	</g>
</g>
<g>
	<g>
		<path d="M448,416c-4.424,0-8,3.576-8,8v8c0,4.424,3.576,8,8,8s8-3.576,8-8v-8C456,419.576,452.424,416,448,416z" fill="#FFFFFF"/>
	</g>
</g>
<g>
	<g>
		<path d="M464,376h-32c-4.424,0-8,3.576-8,8s3.576,8,8,8h32c4.424,0,8-3.576,8-8S468.424,376,464,376z" fill="#FFFFFF"/>
	</g>
</g>
<g>
	<g>
		<path d="M472,128c-4.424,0-8,3.576-8,8s3.576,8,8,8c4.416,0,8,3.584,8,8c0,4.424,3.576,8,8,8s8-3.576,8-8    C496,138.768,485.232,128,472,128z" fill="#FFFFFF"/>
	</g>
</g>
<g>
	<g>
		<path d="M488,144c-4.424,0-8,3.576-8,8v96c0,4.424,3.576,8,8,8s8-3.576,8-8v-96C496,147.576,492.424,144,488,144z" fill="#FFFFFF"/>
	</g>
</g>
<g>
	<g>
		<path d="M472,128h-8c-4.424,0-8,3.576-8,8s3.576,8,8,8h8c4.424,0,8-3.576,8-8S476.424,128,472,128z" fill="#FFFFFF"/>
	</g>
</g>
<g>
	<g>
		<path d="M464,200h-32c-4.424,0-8,3.576-8,8s3.576,8,8,8h32c4.424,0,8-3.576,8-8S468.424,200,464,200z" fill="#FFFFFF"/>
	</g>
</g>
<g>
</g>
<g>
</g>
<g>
</g>
<g>
</g>
<g>
</g>
<g>
</g>
<g>
</g>
<g>
</g>
<g>
</g>
<g>
</g>
<g>
</g>
<g>
</g>
<g>
</g>
<g>
</g>
<g>
</g>
</svg>
